<svg version="1.1" viewBox="0.0 0.0 512.0 512.0" fill="none" stroke="none" stroke-linecap="square" stroke-miterlimit="10" xmlns:xlink="http://www.w3.org/1999/xlink" xmlns="http://www.w3.org/2000/svg"><clipPath id="p.0"><path d="m0 0l512.0 0l0 512.0l-512.0 0l0 -512.0z" clip-rule="nonzero"/></clipPath><g clip-path="url(#p.0)"><path fill="#000000" fill-opacity="0.0" d="m0 0l512.0 0l0 512.0l-512.0 0z" fill-rule="evenodd"/><g filter="url(#shadowFilter-p.1)"><use xlink:href="#p.1" transform="matrix(1.0 0.0 0.0 1.0 0.0 2.0)"/></g><defs><filter id="shadowFilter-p.1" filterUnits="userSpaceOnUse"><feGaussianBlur in="SourceAlpha" stdDeviation="0.5" result="blur"/><feComponentTransfer in="blur" color-interpolation-filters="sRGB"><feFuncR type="linear" slope="0" intercept="0.0"/><feFuncG type="linear" slope="0" intercept="0.0"/><feFuncB type="linear" slope="0" intercept="0.0"/><feFuncA type="linear" slope="0.1" intercept="0"/></feComponentTransfer></filter></defs><g id="p.1"><path fill="#ffffff" d="m0 85.33504l0 0c0 -47.12924 38.2058 -85.33504 85.33504 -85.33504l341.3299 0l0 0c22.632263 0 44.337585 8.99063 60.341003 24.994055c16.003418 16.003424 24.99405 37.708725 24.99405 60.34098l0 341.3299c0 47.129242 -38.20581 85.33505 -85.33505 85.33505l-341.3299 0c-47.12924 0 -85.33504 -38.20581 -85.33504 -85.33505z" fill-rule="evenodd"/></g><path fill="#000000" fill-opacity="0.0" d="m69.244095 -63.968502l373.51184 0l0 639.937l-373.51184 0z" fill-rule="evenodd"/><path fill="#6d9eeb" d="m231.17322 439.6296q-10.75 0 -23.296875 -0.515625q-12.546875 -0.515625 -25.09375 -1.546875q-12.546875 -1.015625 -24.84375 -2.546875q-12.28125 -1.546875 -22.515625 -4.09375l0 -344.07812q10.234375 -2.546875 22.515625 -4.078125q12.296875 -1.546875 24.84375 -2.5625q12.546875 -1.03125 24.828125 -1.546875q12.296875 -0.515625 23.046875 -0.515625q30.71875 0 57.59375 4.609375q26.890625 4.609375 46.59375 15.625q19.71875 11.0 30.984375 28.921875q11.265625 17.921875 11.265625 44.03125q0 29.1875 -13.828125 47.875q-13.828125 18.6875 -36.859375 27.90625q31.21875 9.21875 49.65625 29.1875q18.4375 19.96875 18.4375 56.3125q0 53.25 -39.171875 80.140625q-39.171875 26.875 -124.15625 26.875zm-46.59375 -168.45312l0 124.921875q5.625 0.515625 13.3125 1.03125q6.65625 0.515625 15.609375 0.765625q8.96875 0.25 20.734375 0.25q22.015625 0 41.71875 -2.8125q19.71875 -2.8125 34.5625 -9.984375q14.859375 -7.171875 23.8125 -19.96875q8.96875 -12.796875 8.96875 -32.25q0 -17.40625 -6.65625 -29.4375q-6.65625 -12.03125 -19.203125 -19.203125q-12.546875 -7.171875 -29.953125 -10.234375q-17.40625 -3.078125 -38.90625 -3.078125l-64.0 0zm0 -39.9375l52.21875 0q18.4375 0 34.8125 -2.5625q16.390625 -2.5625 28.421875 -9.21875q12.03125 -6.65625 18.9375 -17.40625q6.921875 -10.75 6.921875 -27.125q0 -15.359375 -7.171875 -25.859375q-7.171875 -10.5 -19.71875 -16.890625q-12.53125 -6.40625 -29.4375 -9.46875q-16.890625 -3.078125 -35.828125 -3.078125q-18.953125 0 -29.703125 0.515625q-10.75 0.5 -19.453125 1.53125l0 109.5625z" fill-rule="nonzero"/><path fill="#cccccc" d="m414.96558 332.07736l-54.677185 38.64569l-6.236206 -66.677185z" fill-rule="evenodd"/><path fill="#cccccc" d="m414.97412 332.0593l-60.91339 -28.031494l84.31497 -183.33856l60.91336 28.031502z" fill-rule="evenodd"/><path fill="#000000" fill-opacity="0.0" d="m354.05362 304.03998l60.91339 28.031494" fill-rule="evenodd"/><path stroke="#999999" stroke-width="1.0" stroke-linejoin="round" stroke-linecap="butt" d="m354.05362 304.03998l60.91339 28.031494" fill-rule="evenodd"/></g></svg>